<svg id="图层_1" data-name="图层 1" xmlns="http://www.w3.org/2000/svg" viewBox="0 0 131.69 139.28"><defs><style>.cls-1{fill:#3aac54;stroke:#006737;stroke-width:1.5px;}.cls-1,.cls-2{stroke-linecap:round;stroke-linejoin:round;}.cls-2{fill:#3da638;stroke:#fff;stroke-width:2px;}</style></defs><title>开源指北logo</title><path class="cls-1" d="M38.36,33.88H84.2a5.93,5.93,0,0,1,1.89.49,4.57,4.57,0,0,1,2.5,3.28,5.56,5.56,0,0,1,.07,1.29q0,15.93,0,31.85a17.26,17.26,0,0,0-19.37,6,16.73,16.73,0,0,0-3.17,7.7,18.32,18.32,0,0,0,.77,8.05,16.87,16.87,0,0,0,4.19,6.69H38.46a4.56,4.56,0,0,1-4.22-3A7.71,7.71,0,0,1,34,93.41q0-27.47,0-54.92A4.58,4.58,0,0,1,37.7,34c.22,0,.44-.06.66-.11"/><line class="cls-2" x1="43.03" y1="84.73" x2="59.03" y2="84.73"/><line class="cls-2" x1="48.05" y1="72.61" x2="63.91" y2="72.61"/><line class="cls-2" x1="43.03" y1="48.38" x2="79.6" y2="48.38"/><line class="cls-2" x1="48.05" y1="60.8" x2="79.6" y2="60.8"/><path class="cls-1" d="M83.63,74.37a12.5,12.5,0,0,0-4.6,24l2.62-7.71a4.7,4.7,0,1,1,4,0l2.62,7.71a12.5,12.5,0,0,0-4.6-24Z"/></svg>